<?xml version="1.0" encoding="UTF-8"?>
<!-- Generator: Adobe Illustrator 16.0.0, SVG Export Plug-In . SVG Version: 6.00 Build 0)  -->
<!DOCTYPE svg PUBLIC "-//W3C//DTD SVG 1.1//EN" "http://www.w3.org/Graphics/SVG/1.1/DTD/svg11.dtd">
<svg version="1.1" id="Capa_1" xmlns="http://www.w3.org/2000/svg" xmlns:xlink="http://www.w3.org/1999/xlink" x="0px" y="0px" width="229px" height="74px" viewBox="0 0 229 74" enable-background="new 0 0 229 74" xml:space="preserve">
<g>
	<path d="M229,0H36.588h-0.002C16.933,0,1,16.595,1,37.063C1,57.531,16.933,74,36.586,74c0.017,0,0.035,0,0.055,0H229V0z"/>
	<path fill="#FFFFFF" d="M127.912,46.508c0,1.703-1.216,2.633-2.939,2.633c-0.86,0-1.636-0.553-1.636-1.438   c0-0.93,0.818-1.439,1.659-1.504l2.916-0.221V46.508z M131.597,50.953V48.92c0,0-0.177,0.045-0.354,0.045   c-0.464,0-0.639-0.201-0.639-0.732v-4.264c0-0.777-0.043-1.596-0.331-2.326c-0.663-1.725-2.337-2.34-4.306-2.34   c-2.562,0-4.612,1.146-4.769,3.736h2.669c0.068-1.064,0.817-1.639,2.1-1.639c1.569,0,1.945,0.729,1.945,1.814v0.707l-3.379,0.246   c-2.189,0.152-3.887,1.41-3.887,3.6c0,1.883,1.412,3.605,4.15,3.605c1.635,0,2.961-0.797,3.489-1.723   c0.089,0.859,0.749,1.609,1.942,1.609C130.889,51.26,131.133,51.152,131.597,50.953z M118.326,51.084V43.41   c0-2.387-1.434-4.107-3.884-4.107c-1.325,0-2.695,0.551-3.38,1.766l-0.2-1.479h-2.315v11.494h2.757v-4.688   c0-0.973-0.022-2.166,0.376-3.072c0.376-0.842,1.015-1.461,1.988-1.461c1.458,0,1.901,0.818,1.901,2.168v7.053H118.326z    M103.093,45.338c0,1.082-0.155,2.166-0.816,2.896c-0.378,0.4-0.996,0.732-1.748,0.732c-0.75,0-1.369-0.332-1.744-0.732   c-0.662-0.73-0.817-1.814-0.817-2.896c0-1.086,0.155-2.17,0.817-2.898c0.375-0.398,0.994-0.73,1.744-0.73   c0.752,0,1.37,0.332,1.748,0.73C102.938,43.168,103.093,44.252,103.093,45.338 M105.893,45.338c0-1.947-0.484-3.164-1.344-4.246   c-0.794-0.973-2.272-1.789-4.02-1.789c-1.744,0-3.225,0.816-4.018,1.789c-0.861,1.082-1.345,2.299-1.345,4.246   c0,1.945,0.483,3.162,1.345,4.246c0.792,0.971,2.273,1.789,4.018,1.789c1.748,0,3.226-0.818,4.02-1.789   C105.409,48.5,105.893,47.283,105.893,45.338 M93.685,51.063v-2.318c-0.156,0-0.219,0.021-0.465,0.021   c-0.947,0-1.104-0.441-1.104-1.105V35.1h-2.779v13.025c0,2.188,1.257,3.09,3.133,3.09C93.023,51.215,93.132,51.174,93.685,51.063    M84.057,44.188h-4.968c0.023-0.752,0.199-1.283,0.596-1.793c0.396-0.531,1.083-0.885,1.922-0.885c0.793,0,1.366,0.266,1.744,0.664   C83.793,42.66,84.035,43.324,84.057,44.188 M86.818,45.424c0.043-1.432-0.154-2.74-0.994-4.002   c-0.95-1.436-2.497-2.119-4.195-2.119c-1.567,0-2.805,0.572-3.667,1.455c-1.102,1.129-1.655,2.768-1.655,4.602   c0,1.879,0.619,3.494,1.768,4.602c0.902,0.859,2.052,1.412,3.621,1.412c1.456,0,2.893-0.465,3.865-1.613   c0.442-0.531,0.905-1.438,0.971-2.123H83.88c-0.11,0.42-0.308,0.73-0.552,0.973c-0.398,0.398-0.883,0.553-1.679,0.553   c-0.749,0-1.302-0.332-1.699-0.707c-0.551-0.531-0.861-1.371-0.838-2.256h7.685C86.797,45.955,86.818,45.424,86.818,45.424    M74.651,47.018h-2.715c-0.024,0.422-0.155,0.775-0.332,1.063c-0.332,0.508-0.928,0.863-1.768,0.863   c-0.751,0-1.303-0.332-1.677-0.73c-0.665-0.73-0.773-1.816-0.773-2.896c0-1.086,0.108-2.191,0.773-2.922   c0.374-0.396,0.926-0.709,1.677-0.709c0.84,0,1.437,0.355,1.768,0.865c0.176,0.285,0.308,0.639,0.332,1.061h2.715   c-0.045-0.906-0.353-1.813-0.885-2.498c-0.793-0.994-2.185-1.811-3.93-1.811s-3.201,0.838-3.996,1.811   c-0.859,1.082-1.256,2.52-1.256,4.203c0,1.68,0.396,3.117,1.256,4.201c0.795,0.971,2.251,1.813,3.996,1.813s3.136-0.818,3.93-1.813   C74.298,48.834,74.606,47.924,74.651,47.018 M63.744,42.152V39.5c-0.288-0.045-0.574-0.066-0.861-0.066   c-1.348,0-2.716,0.553-3.247,1.879l-0.241-1.723h-2.341v11.494h2.781v-5.791c0-1.859,1.016-3.252,2.96-3.252   C63.102,42.041,63.434,42.086,63.744,42.152 M50.961,46.508c0,1.703-1.215,2.633-2.939,2.633c-0.861,0-1.635-0.553-1.635-1.438   c0-0.93,0.818-1.439,1.657-1.504l2.917-0.221V46.508z M54.645,50.953V48.92c0,0-0.177,0.045-0.353,0.045   c-0.461,0-0.639-0.201-0.639-0.732v-4.264c0-0.777-0.046-1.596-0.331-2.326c-0.664-1.725-2.34-2.34-4.307-2.34   c-2.562,0-4.614,1.146-4.767,3.736h2.667c0.066-1.064,0.818-1.639,2.1-1.639c1.57,0,1.946,0.729,1.946,1.814v0.707l-3.381,0.246   c-2.187,0.152-3.885,1.41-3.885,3.6c0,1.883,1.413,3.605,4.149,3.605c1.636,0,2.961-0.797,3.492-1.723   c0.088,0.859,0.748,1.609,1.941,1.609C53.939,51.26,54.184,51.152,54.645,50.953z M39.191,46.465c0,1.594-1.436,2.08-2.762,2.08   h-3.512v-4.361h3.602C38.021,44.184,39.191,44.783,39.191,46.465 M38.859,39.852c0,1.482-1.082,1.949-2.362,1.949h-3.58V37.86   h3.512C37.711,37.86,38.859,38.348,38.859,39.852 M42.081,46.529c0-1.459-0.772-2.854-2.249-3.537   c1.322-0.596,1.917-2.033,1.917-3.316c0-1.35-0.662-2.654-1.809-3.406c-1.059-0.685-2.361-0.86-3.621-0.86h-6.226v15.697h6.226   c1.503,0,2.959-0.133,4.172-1.061C41.618,49.186,42.081,47.924,42.081,46.529"/>
	<g>
		<path fill="#FFFFFF" d="M129.444,24.373h-3.562c0.016-0.542,0.143-0.923,0.426-1.288c0.285-0.381,0.777-0.636,1.379-0.636    c0.571,0,0.982,0.19,1.253,0.477C129.256,23.276,129.432,23.752,129.444,24.373 M131.427,25.259    c0.03-1.031-0.11-1.967-0.714-2.875c-0.683-1.029-1.79-1.52-3.01-1.52c-1.123,0-2.01,0.411-2.629,1.045    c-0.791,0.81-1.186,1.986-1.186,3.302c0,1.348,0.443,2.509,1.266,3.302c0.648,0.619,1.474,1.016,2.598,1.016    c1.043,0,2.072-0.333,2.771-1.156c0.315-0.383,0.646-1.034,0.695-1.526h-1.899c-0.079,0.302-0.222,0.525-0.396,0.699    c-0.287,0.286-0.633,0.398-1.204,0.398c-0.539,0-0.936-0.239-1.219-0.509c-0.397-0.381-0.617-0.985-0.602-1.621h5.512    C131.41,25.639,131.427,25.259,131.427,25.259 M120.895,25.18c0,1.192-0.317,2.668-1.871,2.668c-0.616,0-1.046-0.286-1.33-0.652    c-0.412-0.539-0.523-1.303-0.523-2.016c0-0.714,0.111-1.46,0.523-2c0.284-0.365,0.714-0.65,1.33-0.65    C120.577,22.529,120.895,23.99,120.895,25.18 M122.78,29.322V17.864h-1.981v3.776c-0.347-0.427-1.109-0.775-2.153-0.775    c-0.841,0-1.507,0.253-2.014,0.666c-0.981,0.807-1.473,2.062-1.473,3.684c0,1.554,0.478,2.792,1.459,3.603    c0.504,0.412,1.187,0.697,2.01,0.697c0.905,0,1.824-0.333,2.315-1.094l0.125,0.903H122.78z M111.005,29.212v-1.666    c-0.535,0.063-0.87,0.079-1.282,0.079c-0.633,0-0.919-0.27-0.919-0.906v-4.016h2.077V21.07h-2.077v-2.586l-1.977,0.492v2.095    h-1.505v1.634h1.505v4.191c0,1.587,0.822,2.538,2.483,2.538C109.897,29.433,110.452,29.354,111.005,29.212 M104.639,29.322v-5.507    c0-1.714-1.028-2.95-2.785-2.95c-0.952,0-1.934,0.396-2.425,1.268l-0.143-1.063h-1.662v8.252h1.979v-3.364    c0-0.698-0.017-1.556,0.27-2.206c0.269-0.604,0.726-1.048,1.426-1.048c1.045,0,1.361,0.587,1.361,1.555v5.063H104.639z     M94.422,24.373h-3.564c0.017-0.542,0.145-0.923,0.43-1.288c0.281-0.381,0.774-0.636,1.378-0.636c0.569,0,0.981,0.19,1.251,0.477    C94.232,23.276,94.409,23.752,94.422,24.373 M96.404,25.259c0.029-1.031-0.112-1.967-0.714-2.875    c-0.683-1.029-1.789-1.52-3.008-1.52c-1.123,0-2.012,0.411-2.627,1.045c-0.793,0.81-1.189,1.986-1.189,3.302    c0,1.348,0.444,2.509,1.267,3.302c0.648,0.619,1.473,1.016,2.598,1.016c1.043,0,2.074-0.333,2.772-1.156    c0.316-0.383,0.647-1.034,0.696-1.526h-1.901c-0.08,0.302-0.223,0.525-0.396,0.699c-0.284,0.286-0.633,0.398-1.202,0.398    c-0.541,0-0.938-0.239-1.22-0.509c-0.398-0.381-0.62-0.985-0.603-1.621h5.511C96.386,25.639,96.404,25.259,96.404,25.259     M87.722,29.322v-5.571c0-1.714-0.916-2.886-2.673-2.886c-1.109,0-1.998,0.491-2.488,1.347c-0.411-0.84-1.204-1.347-2.36-1.347    c-1.094,0-1.886,0.539-2.344,1.298l-0.16-1.093h-1.644v8.252h1.961v-4.507c0-1.032,0.509-2.223,1.632-2.223    c0.999,0,1.269,0.586,1.269,1.604v5.126h1.962v-4.507c0-1.032,0.49-2.223,1.617-2.223c0.997,0,1.268,0.586,1.268,1.604v5.126    H87.722z M72.313,26.036c0,1.224-0.871,1.892-2.106,1.892c-0.619,0-1.173-0.398-1.173-1.033c0-0.667,0.585-1.033,1.188-1.081    l2.091-0.158V26.036z M74.957,29.228v-1.459c0,0-0.127,0.032-0.252,0.032c-0.333,0-0.459-0.144-0.459-0.524v-3.064    c0-0.556-0.034-1.143-0.239-1.668c-0.474-1.236-1.675-1.68-3.086-1.68c-1.84,0-3.309,0.823-3.423,2.681h1.917    c0.046-0.762,0.585-1.176,1.506-1.176c1.125,0,1.393,0.525,1.393,1.304v0.507l-2.424,0.175c-1.567,0.111-2.787,1.014-2.787,2.587    c0,1.35,1.012,2.586,2.978,2.586c1.173,0,2.123-0.572,2.502-1.236c0.062,0.616,0.539,1.157,1.393,1.157    C74.45,29.45,74.624,29.369,74.957,29.228z M66.735,29.212v-1.666c-0.539,0.063-0.871,0.079-1.283,0.079    c-0.633,0-0.917-0.27-0.917-0.906v-4.016h2.076V21.07h-2.076v-2.586l-1.979,0.492v2.095h-1.503v1.634h1.503v4.191    c0,1.587,0.822,2.538,2.485,2.538C65.628,29.433,66.183,29.354,66.735,29.212 M60.371,29.322v-5.507    c0-1.714-1.029-2.95-2.787-2.95c-0.949,0-1.932,0.396-2.424,1.268l-0.144-1.063h-1.662v8.252h1.979v-3.364    c0-0.698-0.015-1.556,0.27-2.206c0.271-0.604,0.728-1.048,1.426-1.048c1.047,0,1.362,0.587,1.362,1.555v5.063H60.371z     M51.516,29.322V21.07h-1.977v4.365c0,0.667-0.127,1.412-0.603,1.855c-0.239,0.24-0.556,0.414-1.015,0.414    c-1.046,0-1.426-0.603-1.426-1.571V21.07h-1.979v5.509c0,1.76,1.092,2.95,2.85,2.95c1.046,0,1.966-0.477,2.361-1.285l0.141,1.078    H51.516z M42.786,30.466V21.07h-1.992v9.018c0,0.554-0.331,0.888-0.95,0.888c-0.303,0-0.381-0.033-0.966-0.095v1.681    c0.363,0.094,0.648,0.142,0.902,0.175c0.253,0.032,0.476,0.032,0.697,0.032C41.949,32.767,42.786,31.879,42.786,30.466     M42.837,17.849h-2.121v2.047h2.121V17.849z M36.406,25.324h-3.199l1.6-4.747L36.406,25.324z M39.907,29.322L35.962,18.07h-2.233    l-3.944,11.252h2.06l0.729-2.16h4.465l0.729,2.16H39.907z"/>
	</g>
</g>
</svg>